<svg width="80" height="80" viewBox="0 0 80 80" fill="none" xmlns="http://www.w3.org/2000/svg">
<path d="M40 69.0833C39.4444 69.0833 38.9022 69.0144 38.3733 68.8767C37.8467 68.7367 37.3333 68.5278 36.8333 68.25L20.1667 59.25C19.0556 58.6389 18.1944 57.82 17.5833 56.7933C16.9722 55.7644 16.6667 54.6111 16.6667 53.3333V37.3333L8.66667 32.9167C8.05556 32.5833 7.61112 32.1667 7.33334 31.6667C7.05556 31.1667 6.91667 30.6111 6.91667 30C6.91667 29.3889 7.05556 28.8333 7.33334 28.3333C7.61112 27.8333 8.05556 27.4167 8.66667 27.0833L36.8333 11.75C37.3333 11.4722 37.8467 11.2633 38.3733 11.1233C38.9022 10.9856 39.4444 10.9167 40 10.9167C40.5556 10.9167 41.0978 10.9856 41.6267 11.1233C42.1533 11.2633 42.6667 11.4722 43.1667 11.75L74.9167 29.0833C75.4722 29.3611 75.9033 29.7633 76.21 30.29C76.5144 30.8189 76.6667 31.3889 76.6667 32V53.3333C76.6667 54.2778 76.3467 55.0689 75.7067 55.7067C75.0689 56.3467 74.2778 56.6667 73.3333 56.6667C72.3889 56.6667 71.5978 56.3467 70.96 55.7067C70.32 55.0689 70 54.2778 70 53.3333V33.6667L63.3333 37.3333V53.3333C63.3333 54.6111 63.0278 55.7644 62.4167 56.7933C61.8056 57.82 60.9444 58.6389 59.8333 59.25L43.1667 68.25C42.6667 68.5278 42.1533 68.7367 41.6267 68.8767C41.0978 69.0144 40.5556 69.0833 40 69.0833ZM40 42.3333L62.8333 30L40 17.6667L17.1667 30L40 42.3333ZM40 62.4167L56.6667 53.4167V40.8333L43.25 48.25C42.75 48.5278 42.2222 48.7356 41.6667 48.8733C41.1111 49.0133 40.5556 49.0833 40 49.0833C39.4444 49.0833 38.8889 49.0133 38.3333 48.8733C37.7778 48.7356 37.25 48.5278 36.75 48.25L23.3333 40.8333V53.4167L40 62.4167Z" fill="white"/>
</svg>
