<svg width="181" height="180" viewBox="0 0 181 180" fill="none" xmlns="http://www.w3.org/2000/svg">
<path d="M90.107 15C80.2579 15 70.5052 16.9399 61.4057 20.709C52.3063 24.4781 44.0384 30.0026 37.074 36.967C23.0088 51.0322 15.107 70.1088 15.107 90C15.107 109.891 23.0088 128.968 37.074 143.033C44.0384 149.997 52.3063 155.522 61.4057 159.291C70.5052 163.06 80.2579 165 90.107 165C109.998 165 129.075 157.098 143.14 143.033C157.205 128.968 165.107 109.891 165.107 90C165.107 80.1509 163.167 70.3982 159.398 61.2987C155.629 52.1993 150.104 43.9314 143.14 36.967C136.176 30.0026 127.908 24.4781 118.808 20.709C109.709 16.9399 99.9561 15 90.107 15ZM53.132 137.1C56.357 130.35 76.007 123.75 90.107 123.75C104.207 123.75 123.857 130.35 127.082 137.1C116.577 145.47 103.539 150.019 90.107 150C76.157 150 63.332 145.2 53.132 137.1ZM137.807 126.225C127.082 113.175 101.057 108.75 90.107 108.75C79.157 108.75 53.132 113.175 42.407 126.225C34.4284 115.835 30.1045 103.1 30.107 90C30.107 56.925 57.032 30 90.107 30C123.182 30 150.107 56.925 150.107 90C150.107 103.65 145.457 116.25 137.807 126.225ZM90.107 45C75.557 45 63.857 56.7 63.857 71.25C63.857 85.8 75.557 97.5 90.107 97.5C104.657 97.5 116.357 85.8 116.357 71.25C116.357 56.7 104.657 45 90.107 45ZM90.107 82.5C87.1233 82.5 84.2618 81.3147 82.152 79.205C80.0423 77.0952 78.857 74.2337 78.857 71.25C78.857 68.2663 80.0423 65.4048 82.152 63.295C84.2618 61.1853 87.1233 60 90.107 60C93.0907 60 95.9522 61.1853 98.062 63.295C100.172 65.4048 101.357 68.2663 101.357 71.25C101.357 74.2337 100.172 77.0952 98.062 79.205C95.9522 81.3147 93.0907 82.5 90.107 82.5Z" fill="white"/>
</svg>
